<?xml version="1.0" encoding="UTF-8"?><svg id="Layer_2" xmlns="http://www.w3.org/2000/svg" viewBox="0 0 611.61 80.79"><defs><style>.cls-1{fill:none;}.cls-2{fill:#e86e34;}.cls-3{fill:#939598;}</style></defs><g id="Layer_1-2"><path class="cls-3" d="M63.24,80.79c-.64,0-1.31-.05-2-.16-2.92-.45-5.1-1.64-6.46-3.53-1.23-1.71-1.68-3.87-1.31-6.26l.04-.25,2.22-6.9c-1.48-.71-2.89-1.57-4.21-2.55l-5.39,5.41-.2.15c-1.95,1.43-4.08,2.01-6.16,1.7-2.3-.35-4.35-1.73-6.1-4.12-1.74-2.38-2.45-4.76-2.11-7.06.31-2.14,1.51-4.02,3.47-5.45l.21-.16,7.01-3.53c-.4-1.29-.7-2.61-.9-3.95l-7.45.02-.25-.04c-4.05-.63-8-3.69-6.96-10.38.45-2.91,1.63-5.09,3.5-6.49,1.73-1.29,3.91-1.77,6.31-1.4l.26.04,7.32,2.42c.62-1.18,1.33-2.3,2.13-3.37l-5.25-5.23-.15-.2c-2.42-3.31-3.05-8.27,2.42-12.26,4.56-3.33,9.48-2.8,12.51,1.36l.16.21,3.46,6.87c1.31-.4,2.66-.7,4.03-.88l-.02-7.43.04-.25c.63-4.05,3.69-8,10.38-6.96,5.59.87,8.68,4.72,7.89,9.81l-.04.26-2.45,7.42c.86.46,1.7.98,2.5,1.54l5.19-5.29.21-.16c4.16-3.04,9-2.05,12.33,2.51,1.75,2.39,2.44,4.77,2.07,7.06-.33,2.08-1.54,3.93-3.5,5.35l-.2.15-6.4,3.28c.41,1.21.73,2.44.95,3.7l7.6-.08.26.04c5.09.79,7.81,4.91,6.94,10.5-.46,2.92-1.64,5.1-3.53,6.46-1.71,1.23-3.87,1.69-6.26,1.31l-.24-.04-9.94-3.17c-1.68-.54-2.61-2.34-2.08-4.02.54-1.68,2.34-2.61,4.02-2.07l9.43,3.01c.45.05.97.04,1.31-.21.43-.31.78-1.13.95-2.25.41-2.6-.53-3-1.36-3.15l-12.97.13-.18-3.04c-.15-2.53-.78-4.97-1.87-7.24l-1.35-2.81,11.3-5.8c.35-.28.71-.66.78-1.07.09-.53-.25-1.35-.92-2.27-1.55-2.13-2.49-1.74-3.18-1.27l-8.96,9.13-2.28-2.03c-1.71-1.52-3.65-2.72-5.76-3.55l-2.81-1.11,4.12-12.46c.11-.83.02-1.84-2.59-2.25-2.53-.39-2.87.46-3.03,1.38l.03,13.04-3.16.04c-2.63.04-5.18.59-7.56,1.64l-2.78,1.23-5.87-11.66c-.51-.66-1.29-1.31-3.42.24-2.07,1.51-1.71,2.35-1.17,3.12l9.2,9.16-2.17,2.27c-1.79,1.87-3.16,4.03-4.09,6.43l-1.1,2.84-12.4-4.09c-.42-.04-.93-.02-1.27.24-.46.34-.82,1.2-1,2.34-.39,2.53.46,2.87,1.38,3.03l13.02-.03.07,3.13c.06,2.61.63,5.13,1.69,7.49l1.25,2.79-11.81,5.95c-.33.27-.67.64-.73,1.06-.08.57.26,1.43.95,2.37.67.92,1.35,1.49,1.88,1.57.41.06.88-.17,1.26-.41l9.29-9.33,2.27,2.16c2.04,1.94,4.53,3.44,7.18,4.34l2.99,1.01-3.93,12.21c-.05.45-.03.97.21,1.31.31.43,1.13.78,2.25.95,2.6.41,3-.53,3.15-1.35l-.13-12.95,3.01-.2c2.51-.17,4.92-.82,7.17-1.91l2.82-1.38,5.89,11.48c.28.35.66.71,1.07.78.53.08,1.35-.25,2.27-.92.94-.68,1.53-1.4,1.62-1.96.07-.43-.15-.9-.39-1.26l-7.12-7.24c-1.24-1.26-1.22-3.29.04-4.53,1.26-1.24,3.29-1.22,4.53.04l7.47,7.6.14.19c1.43,1.96,2,4.12,1.65,6.25-.38,2.3-1.78,4.35-4.16,6.08-2.39,1.75-4.77,2.44-7.07,2.07-2.08-.34-3.93-1.54-5.35-3.5l-.15-.2-3.36-6.54c-1.18.41-2.39.73-3.62.96l.08,7.63-.04.26c-.69,4.46-3.95,7.1-8.5,7.1h0Z"/><path class="cls-2" d="M221.1,38.1l-2.52-.58c-1.86-.41-3.23-.75-3.23-2.15,0-1.28,1.37-1.86,3.48-1.86,3.81,0,3.89,2.77,6.24,2.77,1.57,0,2.52-1.24,2.52-2.64,0-2.77-4.62-4.59-9.22-4.59-4.18,0-9.05,1.82-9.05,6.74,0,4.05,2.72,5.5,6.24,6.37l3.56.87c2.15.54,3.48.79,3.48,2.32,0,1.24-1.37,2.19-3.52,2.19-4.47,0-4.72-3.73-7.32-3.73-1.69,0-2.44,1.2-2.44,2.53,0,2.98,4.54,5.41,10.01,5.41,4.55,0,9.3-2.27,9.3-7.19,0-4.22-4.09-5.67-7.52-6.45Z"/><path class="cls-2" d="M242.73,29.05c-7.28,0-11.17,4.96-11.17,11.33,0,6.04,2.94,11.37,11.17,11.37s11.16-5.33,11.16-11.37c0-6.37-3.88-11.33-11.16-11.33ZM242.73,47.29c-3.6,0-5.13-3.23-5.13-6.91,0-3.93,1.62-6.87,5.13-6.87s5.13,2.94,5.13,6.87c0,3.68-1.53,6.91-5.13,6.91Z"/><path class="cls-2" d="M587.29,29.05c-2.94,0-4.3,2.6-5.01,5.12h-.08v-2.31c0-1.82-1.2-2.81-2.73-2.81s-2.72.99-2.72,2.81v16.87c0,1.62.66,3.02,3.02,3.02s3.01-1.4,3.01-3.02v-7.03c0-5,1.32-6.7,3.77-6.7h1.07c1.49,0,2.98-.79,2.98-3.02,0-1.7-1.4-2.93-3.31-2.93Z"/><path class="cls-2" d="M270.64,29.05c-3.44,0-5.63,1.57-7.33,3.8h-.08v-.79c0-1.82-.83-3.02-2.73-3.02s-2.73,1.2-2.73,3.02v16.66c0,1.62.66,3.02,3.02,3.02s3.02-1.4,3.02-3.02v-9.97c0-3.02,2.48-4.76,4.59-4.76,2.61,0,3.81,1.74,3.81,4.18v10.54c0,1.62.66,3.02,3.02,3.02s3.02-1.4,3.02-3.02v-11.74c0-6.12-3.97-7.93-7.6-7.93Z"/><path class="cls-2" d="M184.37,35.25c0-4.34-4.01-6.2-9.8-6.2-6.2,0-9.59,3.06-9.59,5.45,0,1.24,1.03,2.32,2.56,2.32,2.4,0,2.52-3.31,6.99-3.31,2.03,0,3.81.74,3.81,2.48s-1.16,2.07-2.61,2.24l-3.68.41c-4.63.54-8.43,1.94-8.43,6.95,0,3.8,3.39,6.15,6.82,6.15,3.19,0,5.92-.91,8.28-3.51.08,1.86.95,3.51,3.55,3.51,1.44,0,2.73-.95,2.73-2.31,0-.95-.62-1.53-.62-4.05v-10.13ZM178.34,43.39c0,2.24-2.03,4.39-5.34,4.39-2.07,0-3.35-1.12-3.35-2.48,0-1.82,1.37-2.61,3.89-2.98l2.19-.33c.7-.12,1.95-.33,2.61-.95v2.36Z"/><path class="cls-2" d="M204.26,29.05c-1.65,0-2.48,1.16-2.89,2.69l-3.68,13.69h-.08l-3.89-14.1c-.37-1.36-1.49-2.27-3.1-2.27s-2.93,1.24-2.93,2.9c0,.7.25,1.36.75,2.81l6.28,17.91c-.45,1.86-1.32,1.9-2.11,1.9h-.62c-1.61,0-2.77.83-2.77,2.44,0,1.45,1.12,2.77,3.8,2.77,3.81,0,5.46-2.15,6.91-6.28l6.98-19.81c.29-.79.46-1.41.46-1.9,0-.75-.7-2.73-3.1-2.73Z"/><path class="cls-2" d="M159.1,29.05c-2.94,0-4.3,2.6-5,5.12h-.08v-2.31c0-1.82-1.2-2.81-2.72-2.81s-2.72.99-2.72,2.81v16.87c0,1.62.66,3.02,3.01,3.02s3.02-1.4,3.02-3.02v-7.03c0-5,1.32-6.7,3.76-6.7h1.08c1.49,0,2.98-.79,2.98-3.02,0-1.7-1.41-2.93-3.31-2.93Z"/><path class="cls-2" d="M140.7,29.05c-1.78,0-2.72.99-2.72,2.85v.75h-.08c-1.12-2.23-3.44-3.59-6.37-3.59-5.09,0-9.47,3.67-9.47,11.49,0,5.96,3.31,10.09,9.67,10.09,2.4,0,4.76-1.32,5.83-2.89h.08v1.24c0,4.76-1.49,6.62-5.17,6.62-3.39,0-3.89-3.1-6.41-3.1-1.32,0-2.48,1.08-2.48,2.57,0,2.93,4.5,5,9.1,5,6.29,0,10.75-3.35,10.75-10.62v-17.54c0-1.86-.87-2.85-2.72-2.85ZM132.88,46.17c-3.44,0-4.8-3.06-4.8-5.83,0-3.72,1.2-6.58,5.09-6.58,2.81,0,4.47,1.95,4.47,6.33s-2.07,6.08-4.76,6.08Z"/><path class="cls-2" d="M561.62,29.05c-7.16,0-11.41,4.71-11.41,11.74,0,5.25,3.18,10.96,11.62,10.96,3.64,0,9.47-1.69,9.47-5.33,0-1.12-1.03-2.36-2.48-2.36-2.44,0-2.44,2.98-6.99,2.98-3.52,0-5.59-2.32-5.59-5.51h13.65c2.03,0,2.64-.54,2.64-2.6,0-4.96-3.97-9.88-10.91-9.88ZM556.24,38.06c.66-2.94,2.48-4.8,5.5-4.8,2.69,0,4.76,2.03,5.09,4.8h-10.59Z"/><path class="cls-2" d="M604.09,38.1l-2.52-.58c-1.86-.41-3.23-.75-3.23-2.15,0-1.28,1.36-1.86,3.48-1.86,3.81,0,3.89,2.77,6.24,2.77,1.57,0,2.52-1.24,2.52-2.64,0-2.77-4.63-4.59-9.22-4.59-4.18,0-9.05,1.82-9.05,6.74,0,4.05,2.73,5.5,6.24,6.37l3.56.87c2.15.54,3.48.79,3.48,2.32,0,1.24-1.37,2.19-3.52,2.19-4.47,0-4.72-3.73-7.32-3.73-1.69,0-2.44,1.2-2.44,2.53,0,2.98,4.54,5.41,10,5.41,4.55,0,9.3-2.27,9.3-7.19,0-4.22-4.09-5.67-7.52-6.45Z"/><path class="cls-2" d="M504.58,29.05c-2.94,0-4.3,2.6-5.01,5.12h-.08v-2.31c0-1.82-1.2-2.81-2.73-2.81s-2.72.99-2.72,2.81v16.87c0,1.62.66,3.02,3.02,3.02s3.01-1.4,3.01-3.02v-7.03c0-5,1.32-6.7,3.76-6.7h1.08c1.49,0,2.98-.79,2.98-3.02,0-1.7-1.4-2.93-3.3-2.93Z"/><path class="cls-2" d="M313.16,20.9c-1.82,0-3.02,1.04-3.02,3.02v8.19h-.08c-1.2-1.94-3.27-3.06-5.96-3.06-6.37,0-9.3,5.41-9.3,11.2,0,7.82,4.42,11.49,9.47,11.49,2.94,0,5.38-1.24,6.37-3.8h.08v.95c0,1.86.95,2.85,2.73,2.85s2.72-.99,2.72-2.85v-24.98c0-1.99-1.2-3.02-3.02-3.02ZM305.63,47.04c-3.23-.08-4.8-3.02-4.8-6.58,0-2.81.95-6.7,4.8-6.7,3.68-.04,4.84,3.6,4.84,6.7,0,3.43-1.32,6.58-4.84,6.58Z"/><path class="cls-2" d="M418.12,29.05c-3.44,0-5.63,1.57-7.32,3.8h-.08v-.79c0-1.82-.83-3.02-2.73-3.02s-2.73,1.2-2.73,3.02v16.66c0,1.62.66,3.02,3.02,3.02s3.02-1.4,3.02-3.02v-9.97c0-3.02,2.48-4.76,4.59-4.76,2.61,0,3.81,1.74,3.81,4.18v10.54c0,1.62.66,3.02,3.01,3.02s3.02-1.4,3.02-3.02v-11.74c0-6.12-3.96-7.93-7.6-7.93Z"/><path class="cls-2" d="M455.08,29.05c-2.94,0-5.38,1.24-6.37,3.8h-.08v-.95c0-1.86-.95-2.85-2.73-2.85s-2.72.99-2.72,2.85v24.85c0,1.99,1.2,3.02,3.02,3.02s3.01-1.03,3.01-3.02v-8.06h.08c1.12,1.95,3.19,3.06,5.96,3.06,6.37,0,9.3-5.41,9.3-11.2,0-7.82-4.42-11.49-9.47-11.49ZM453.72,47.04c-3.68.04-4.84-3.6-4.84-6.7,0-3.44,1.33-6.58,4.84-6.58,3.23.08,4.8,3.02,4.8,6.58,0,2.81-.95,6.7-4.8,6.7Z"/><path class="cls-2" d="M397.72,29.05c-1.77,0-2.73.99-2.73,2.85v.75h-.08c-1.12-2.23-3.43-3.59-6.37-3.59-5.08,0-9.47,3.67-9.47,11.49,0,5.96,3.31,10.09,9.67,10.09,2.4,0,4.76-1.32,5.83-2.89h.08v1.24c0,4.76-1.49,6.62-5.17,6.62-3.39,0-3.89-3.1-6.41-3.1-1.32,0-2.48,1.08-2.48,2.57,0,2.93,4.5,5,9.1,5,6.29,0,10.75-3.35,10.75-10.62v-17.54c0-1.86-.87-2.85-2.73-2.85ZM389.91,46.17c-3.43,0-4.8-3.06-4.8-5.83,0-3.72,1.2-6.58,5.09-6.58,2.81,0,4.47,1.95,4.47,6.33s-2.07,6.08-4.76,6.08Z"/><path class="cls-2" d="M488.5,35.25c0-4.34-4.01-6.2-9.8-6.2-6.2,0-9.59,3.06-9.59,5.45,0,1.24,1.03,2.32,2.56,2.32,2.4,0,2.52-3.31,6.99-3.31,2.03,0,3.81.74,3.81,2.48s-1.16,2.07-2.61,2.24l-3.68.41c-4.63.54-8.43,1.94-8.43,6.95,0,3.8,3.39,6.15,6.82,6.15,3.19,0,5.92-.91,8.28-3.51.08,1.86.95,3.51,3.55,3.51,1.44,0,2.72-.95,2.72-2.31,0-.95-.62-1.53-.62-4.05v-10.13ZM482.47,43.39c0,2.24-2.03,4.39-5.34,4.39-2.07,0-3.35-1.12-3.35-2.48,0-1.82,1.37-2.61,3.89-2.98l2.19-.33c.7-.12,1.94-.33,2.61-.95v2.36Z"/><path class="cls-2" d="M519.97,33.55c1.78,0,2.73-.54,2.73-1.98s-.95-1.98-2.73-1.98h-1.82v-3.68c0-1.98-1.2-3.02-3.02-3.02s-3.02,1.04-3.02,3.02v3.68h-1.03c-1.7,0-2.4.66-2.4,1.98s.7,1.98,2.4,1.98h1.03v12.83c0,3.55,1.82,5.37,6.2,5.37,2.9,0,4.38-.95,4.38-2.68,0-1.28-.79-2.02-2.11-2.02h-.87c-1.07,0-1.57-.5-1.57-1.41v-12.08h1.82Z"/><path class="cls-2" d="M357.12,38.1l-2.53-.58c-1.86-.41-3.22-.75-3.22-2.15,0-1.28,1.36-1.86,3.47-1.86,3.81,0,3.89,2.77,6.25,2.77,1.57,0,2.52-1.24,2.52-2.64,0-2.77-4.63-4.59-9.22-4.59-4.18,0-9.05,1.82-9.05,6.74,0,4.05,2.73,5.5,6.24,6.37l3.56.87c2.15.54,3.47.79,3.47,2.32,0,1.24-1.36,2.19-3.52,2.19-4.47,0-4.72-3.73-7.32-3.73-1.7,0-2.44,1.2-2.44,2.53,0,2.98,4.54,5.41,10.01,5.41,4.55,0,9.3-2.27,9.3-7.19,0-4.22-4.09-5.67-7.52-6.45Z"/><path class="cls-2" d="M538.7,29.05c-3.43,0-5.63,1.57-7.32,3.8h-.08v-.79c0-1.82-.83-3.02-2.72-3.02s-2.73,1.2-2.73,3.02v16.66c0,1.62.66,3.02,3.01,3.02s3.02-1.4,3.02-3.02v-9.97c0-3.02,2.48-4.76,4.59-4.76,2.6,0,3.81,1.74,3.81,4.18v10.54c0,1.62.66,3.02,3.01,3.02s3.02-1.4,3.02-3.02v-11.74c0-6.12-3.97-7.93-7.61-7.93Z"/><path class="cls-2" d="M331.48,29.05c-7.16,0-11.41,4.71-11.41,11.74,0,5.25,3.18,10.96,11.62,10.96,3.64,0,9.47-1.69,9.47-5.33,0-1.12-1.04-2.36-2.48-2.36-2.44,0-2.44,2.98-6.99,2.98-3.52,0-5.59-2.32-5.59-5.51h13.65c2.03,0,2.64-.54,2.64-2.6,0-4.96-3.96-9.88-10.91-9.88ZM326.1,38.06c.66-2.94,2.48-4.8,5.5-4.8,2.68,0,4.75,2.03,5.08,4.8h-10.59Z"/><path class="cls-2" d="M371.84,29.05c-2.35,0-3.02,1.41-3.02,3.02v16.66c0,1.62.66,3.02,3.02,3.02s3.02-1.4,3.02-3.02v-16.66c0-1.61-.66-3.02-3.02-3.02Z"/><path class="cls-2" d="M371.84,20.74c-1.73,0-3.14,1.4-3.14,3.14s1.41,3.14,3.14,3.14,3.14-1.41,3.14-3.14-1.4-3.14-3.14-3.14Z"/><polyline class="cls-1" points="489.56 63.14 489.56 23.82 0 23.82 0 63.14"/></g></svg>